<svg width="10" height="18" viewBox="0 0 10 18" fill="none" xmlns="http://www.w3.org/2000/svg">
<path d="M9.64906 0.338324C9.5437 0.23107 9.41859 0.145985 9.28088 0.0879327C9.14316 0.0298806 8.99554 0 8.84646 0C8.69738 0 8.54977 0.0298806 8.41205 0.0879327C8.27434 0.145985 8.14922 0.23107 8.04387 0.338324L0.332708 8.17388C0.227235 8.28102 0.143561 8.40824 0.086473 8.54828C0.0293845 8.68832 0 8.83843 0 8.99003C0 9.14162 0.0293845 9.29173 0.086473 9.43177C0.143561 9.57181 0.227235 9.69904 0.332708 9.80617L8.04387 17.6417C8.14826 17.7533 8.27355 17.8424 8.41235 17.9039C8.55116 17.9654 8.70067 17.9981 8.85208 17.9999C9.00348 18.0018 9.15372 17.9727 9.29392 17.9146C9.43413 17.8565 9.56147 17.7704 9.66845 17.6614C9.77542 17.5524 9.85986 17.4228 9.91678 17.2801C9.97371 17.1374 10.002 16.9846 9.99989 16.8307C9.99782 16.6767 9.96546 16.5247 9.90472 16.3837C9.84398 16.2426 9.75609 16.1154 9.64622 16.0094L2.73766 8.99003L9.64622 1.97061C9.75188 1.86367 9.83578 1.73659 9.89311 1.59666C9.95044 1.45672 9.98009 1.30666 9.98035 1.15507C9.98061 1.00347 9.95149 0.853308 9.89464 0.713166C9.8378 0.573023 9.75435 0.445648 9.64906 0.338324V0.338324Z" fill="#FA8C28"/>
</svg>
