<svg width="26" height="26" viewBox="0 0 26 26" fill="none" xmlns="http://www.w3.org/2000/svg">
<path d="M25.2395 0.760452C24.2256 -0.253484 22.5816 -0.253484 21.5677 0.760452L13 9.32816L4.43231 0.760478C3.41836 -0.253458 1.77444 -0.253501 0.760455 0.760478C-0.253468 1.77441 -0.253502 3.41836 0.760455 4.43234L9.32811 13L0.760484 21.5677C-0.253468 22.5816 -0.253438 24.2256 0.76048 25.2395C1.77446 26.2535 3.41839 26.2535 4.43234 25.2395L13 16.6719L21.5676 25.2395C22.5816 26.2535 24.2256 26.2535 25.2395 25.2395C26.2535 24.2256 26.2534 22.5816 25.2395 21.5677L16.6718 13L25.2395 4.43231C26.2535 3.41838 26.2535 1.77443 25.2395 0.760452Z" fill="#FA8C28"/>
</svg>
