<svg width="88" height="28" viewBox="0 0 88 28" fill="none" xmlns="http://www.w3.org/2000/svg">
<path d="M72.5586 0.61377L72.4164 27.8328L86.8996 27.9085L87.0418 0.68944L72.5586 0.61377Z" fill="#FA8C28"/>
<path d="M58.0762 0.538086L57.934 27.7571L72.4172 27.8328L72.5594 0.613757L58.0762 0.538086Z" fill="#FA8C28" fill-opacity="0.9"/>
<path d="M43.5918 0.462402L43.4496 27.6815L57.9328 27.7571L58.075 0.538073L43.5918 0.462402Z" fill="#FA8C28" fill-opacity="0.8"/>
<path d="M29.1074 0.386719L28.9652 27.6058L43.4484 27.6814L43.5907 0.462389L29.1074 0.386719Z" fill="#FA8C28" fill-opacity="0.7"/>
<path d="M14.625 0.311035L14.4828 27.5301L28.966 27.6058L29.1082 0.386706L14.625 0.311035Z" fill="#FA8C28" fill-opacity="0.6"/>
<path d="M0.142578 0.235718L0.000366442 27.4548L14.4836 27.5304L14.6258 0.311389L0.142578 0.235718Z" fill="#FA8C28" fill-opacity="0.5"/>
<rect x="0.5" y="0.5" width="86" height="27" stroke="#F7CCA4"/>
</svg>
