<svg width="25" height="23" viewBox="0 0 25 23" fill="none" xmlns="http://www.w3.org/2000/svg">
<mask id="path-1-inside-1" fill="white">
<path d="M17.8294 1.28959C18.9996 1.29061 20.1433 1.64781 21.1156 2.31597C22.0879 2.98413 22.8452 3.93322 23.2916 5.04313C23.738 6.15304 23.8535 7.37388 23.6234 8.55115C23.3933 9.72842 22.828 10.8092 21.9991 11.6567L21.7491 11.9132L15.2971 18.5459L14.1472 19.7283L13.7272 20.1592L13.1322 20.7696C12.9624 20.9416 12.7334 21.038 12.4948 21.038C12.2562 21.038 12.0272 20.9416 11.8573 20.7696L11.2499 20.1386L11.1999 20.0848L9.69999 18.5459L9.33002 18.1714L3.25049 11.9311L3.0005 11.6747C2.16658 10.8275 1.59701 9.745 1.36422 8.56484C1.13143 7.38469 1.24593 6.16017 1.69316 5.04695C2.14039 3.93374 2.90016 2.98211 3.87586 2.31306C4.85157 1.64401 5.99914 1.28776 7.17269 1.28959C7.94912 1.28735 8.71828 1.44306 9.4357 1.74771C10.1531 2.05235 10.8046 2.4999 11.3524 3.06446L11.6023 3.32095L12.4998 4.2366L13.3847 3.32864L13.6347 3.07216C14.1844 2.50663 14.8379 2.05857 15.5575 1.75392C16.2771 1.44926 17.0484 1.29406 17.8269 1.29728L17.8294 1.28959ZM17.8269 0.0148592C16.8847 0.0116478 15.9511 0.199415 15.0799 0.56738C14.2086 0.935345 13.4167 1.47626 12.7498 2.15907L12.4998 2.41556L12.2498 2.15907C10.9053 0.777844 9.081 0.0012039 7.17835 1.39848e-06C5.27571 -0.00120111 3.45053 0.773133 2.10432 2.15266C0.75812 3.53218 0.00117338 5.4039 1.36302e-06 7.35605C-0.00117065 9.30819 0.753528 11.1809 2.09807 12.5621L2.34805 12.8186L8.81006 19.4513L10.3099 20.9902L10.3349 21.0184L10.9749 21.6776C11.3791 22.0899 11.926 22.3214 12.496 22.3214C13.0661 22.3214 13.6129 22.0899 14.0172 21.6776L14.6121 21.0697L16.182 19.459L22.6365 12.8288L22.8865 12.5723C23.8935 11.5449 24.5804 10.2337 24.8599 8.80508C25.1393 7.37645 24.9988 5.89485 24.4562 4.54829C23.9135 3.20174 22.9932 2.05095 21.812 1.24198C20.6308 0.433008 19.242 0.00232828 17.8219 0.00459981L17.8269 0.0148592Z"/>
</mask>
<path d="M17.8294 1.28959C18.9996 1.29061 20.1433 1.64781 21.1156 2.31597C22.0879 2.98413 22.8452 3.93322 23.2916 5.04313C23.738 6.15304 23.8535 7.37388 23.6234 8.55115C23.3933 9.72842 22.828 10.8092 21.9991 11.6567L21.7491 11.9132L15.2971 18.5459L14.1472 19.7283L13.7272 20.1592L13.1322 20.7696C12.9624 20.9416 12.7334 21.038 12.4948 21.038C12.2562 21.038 12.0272 20.9416 11.8573 20.7696L11.2499 20.1386L11.1999 20.0848L9.69999 18.5459L9.33002 18.1714L3.25049 11.9311L3.0005 11.6747C2.16658 10.8275 1.59701 9.745 1.36422 8.56484C1.13143 7.38469 1.24593 6.16017 1.69316 5.04695C2.14039 3.93374 2.90016 2.98211 3.87586 2.31306C4.85157 1.64401 5.99914 1.28776 7.17269 1.28959C7.94912 1.28735 8.71828 1.44306 9.4357 1.74771C10.1531 2.05235 10.8046 2.4999 11.3524 3.06446L11.6023 3.32095L12.4998 4.2366L13.3847 3.32864L13.6347 3.07216C14.1844 2.50663 14.8379 2.05857 15.5575 1.75392C16.2771 1.44926 17.0484 1.29406 17.8269 1.29728L17.8294 1.28959ZM17.8269 0.0148592C16.8847 0.0116478 15.9511 0.199415 15.0799 0.56738C14.2086 0.935345 13.4167 1.47626 12.7498 2.15907L12.4998 2.41556L12.2498 2.15907C10.9053 0.777844 9.081 0.0012039 7.17835 1.39848e-06C5.27571 -0.00120111 3.45053 0.773133 2.10432 2.15266C0.75812 3.53218 0.00117338 5.4039 1.36302e-06 7.35605C-0.00117065 9.30819 0.753528 11.1809 2.09807 12.5621L2.34805 12.8186L8.81006 19.4513L10.3099 20.9902L10.3349 21.0184L10.9749 21.6776C11.3791 22.0899 11.926 22.3214 12.496 22.3214C13.0661 22.3214 13.6129 22.0899 14.0172 21.6776L14.6121 21.0697L16.182 19.459L22.6365 12.8288L22.8865 12.5723C23.8935 11.5449 24.5804 10.2337 24.8599 8.80508C25.1393 7.37645 24.9988 5.89485 24.4562 4.54829C23.9135 3.20174 22.9932 2.05095 21.812 1.24198C20.6308 0.433008 19.242 0.00232828 17.8219 0.00459981L17.8269 0.0148592Z" fill="#FA8C28"/>
<path d="M17.8294 1.28959L17.8329 -2.71041L14.9241 -2.71296L14.0252 0.0534047L17.8294 1.28959ZM21.9991 11.6567L19.1395 8.85971L19.1345 8.86482L21.9991 11.6567ZM21.7491 11.9132L18.8846 9.12131L18.8819 9.12408L21.7491 11.9132ZM15.2971 18.5459L12.4299 15.7568L12.4295 15.7571L15.2971 18.5459ZM14.1472 19.7283L17.0117 22.5201L17.0147 22.517L14.1472 19.7283ZM13.7272 20.1592L16.5917 22.951L16.5917 22.951L13.7272 20.1592ZM13.1322 20.7696L15.9785 23.5801L15.9876 23.5708L15.9967 23.5615L13.1322 20.7696ZM11.8573 20.7696L8.97575 23.5439L8.9933 23.5621L9.01108 23.5801L11.8573 20.7696ZM11.2499 20.1386L8.31821 22.8599L8.34301 22.8866L8.3683 22.9129L11.2499 20.1386ZM11.1999 20.0848L14.1315 17.3635L14.0984 17.3278L14.0644 17.2929L11.1999 20.0848ZM9.69999 18.5459L12.5645 15.754L12.555 15.7443L12.5454 15.7346L9.69999 18.5459ZM9.33002 18.1714L6.46493 20.9627L6.47471 20.9727L6.48456 20.9827L9.33002 18.1714ZM3.25049 11.9311L6.11557 9.13985L6.115 9.13926L3.25049 11.9311ZM3.0005 11.6747L5.86502 8.88278L5.85809 8.87567L5.85114 8.8686L3.0005 11.6747ZM7.17269 1.28959L7.16644 5.28958L7.17532 5.2896L7.18421 5.28957L7.17269 1.28959ZM11.3524 3.06446L8.48163 5.84995L8.48785 5.85634L11.3524 3.06446ZM11.6023 3.32095L8.73782 6.11283L8.74564 6.12081L11.6023 3.32095ZM12.4998 4.2366L9.64307 7.03646L12.5078 9.95931L15.3643 7.02847L12.4998 4.2366ZM13.3847 3.32864L10.5202 0.536765L10.5202 0.536765L13.3847 3.32864ZM13.6347 3.07216L16.4992 5.86403L16.503 5.86015L13.6347 3.07216ZM17.8269 1.29728L17.8103 5.29725L20.729 5.30934L21.6311 2.53347L17.8269 1.29728ZM17.8269 0.0148592L17.8132 4.01484L24.236 4.03673L21.4227 -1.73719L17.8269 0.0148592ZM12.7498 2.15907L9.88834 -0.635983L9.88525 -0.632805L12.7498 2.15907ZM12.4998 2.41556L9.63527 5.20743L12.4998 8.14647L15.3643 5.20743L12.4998 2.41556ZM12.2498 2.15907L9.38357 4.94918L9.38529 4.95095L12.2498 2.15907ZM2.09807 12.5621L-0.768158 15.3522L-0.766439 15.354L2.09807 12.5621ZM2.34805 12.8186L5.21311 10.0273L5.21257 10.0267L2.34805 12.8186ZM8.81006 19.4513L5.94501 22.2426L5.94555 22.2431L8.81006 19.4513ZM10.3099 20.9902L13.3038 18.3375L13.2408 18.2664L13.1745 18.1983L10.3099 20.9902ZM10.3349 21.0184L7.34105 23.671L7.4015 23.7393L7.465 23.8047L10.3349 21.0184ZM10.9749 21.6776L8.10495 24.4638L8.11161 24.4707L8.11831 24.4775L10.9749 21.6776ZM14.0172 21.6776L16.8737 24.4775L16.8758 24.4755L14.0172 21.6776ZM14.6121 21.0697L17.4708 23.8676L17.4766 23.8616L14.6121 21.0697ZM16.182 19.459L19.0465 22.2508L19.0481 22.2492L16.182 19.459ZM22.6365 12.8288L19.772 10.037L19.7704 10.0386L22.6365 12.8288ZM22.8865 12.5723L20.0299 9.77237L20.022 9.78047L22.8865 12.5723ZM17.8259 5.28959C18.1814 5.2899 18.5378 5.39793 18.8502 5.61263L23.381 -0.980691C21.7488 -2.1023 19.8178 -2.70867 17.8329 -2.71041L17.8259 5.28959ZM18.8502 5.61263C19.164 5.82823 19.4236 6.14546 19.5805 6.53574L27.0027 3.55053C26.2669 1.72098 25.0119 0.140031 23.381 -0.980691L18.8502 5.61263ZM19.5805 6.53574C19.7379 6.92685 19.78 7.36266 19.6977 7.78389L27.5491 9.31841C27.927 7.3851 27.7382 5.37924 27.0027 3.55053L19.5805 6.53574ZM19.6977 7.78389C19.6155 8.20467 19.4158 8.57723 19.1395 8.85971L24.8586 14.4537C26.2402 13.0412 27.1712 11.2522 27.5491 9.31841L19.6977 7.78389ZM19.1345 8.86482L18.8846 9.12131L24.6136 14.7051L24.8636 14.4486L19.1345 8.86482ZM18.8819 9.12408L12.4299 15.7568L18.1643 21.335L24.6163 14.7023L18.8819 9.12408ZM12.4295 15.7571L11.2796 16.9395L17.0147 22.517L18.1646 21.3346L12.4295 15.7571ZM11.2826 16.9364L10.8627 17.3673L16.5917 22.951L17.0117 22.5201L11.2826 16.9364ZM10.8627 17.3673L10.2677 17.9777L15.9967 23.5615L16.5917 22.951L10.8627 17.3673ZM10.286 17.9591C10.8568 17.3811 11.6483 17.038 12.4948 17.038V25.038C13.8185 25.038 15.068 24.5021 15.9785 23.5801L10.286 17.9591ZM12.4948 17.038C13.3413 17.038 14.1328 17.3811 14.7036 17.9591L9.01108 23.5801C9.92152 24.5021 11.1711 25.038 12.4948 25.038V17.038ZM14.7389 17.9953L14.1315 17.3644L8.3683 22.9129L8.97575 23.5439L14.7389 17.9953ZM14.1815 17.4174L14.1315 17.3635L8.26822 22.8061L8.31821 22.8599L14.1815 17.4174ZM14.0644 17.2929L12.5645 15.754L6.83548 21.3378L8.33537 22.8767L14.0644 17.2929ZM12.5454 15.7346L12.1755 15.3601L6.48456 20.9827L6.85454 21.3572L12.5454 15.7346ZM12.1951 15.3801L6.11557 9.13985L0.385399 14.7224L6.46493 20.9627L12.1951 15.3801ZM6.115 9.13926L5.86502 8.88278L0.135992 14.4665L0.385973 14.723L6.115 9.13926ZM5.85114 8.8686C5.57308 8.58613 5.37186 8.21284 5.2886 7.79074L-2.56016 9.33895C-2.17784 11.2772 -1.23993 13.0688 0.149872 14.4807L5.85114 8.8686ZM5.2886 7.79074C5.20525 7.36819 5.2471 6.93071 5.40483 6.53811L-2.0185 3.5558C-2.75524 5.38963 -2.94239 7.40119 -2.56016 9.33895L5.2886 7.79074ZM5.40483 6.53811C5.56222 6.14634 5.8229 5.82803 6.13797 5.61198L1.61376 -0.98586C-0.022586 0.136197 -1.28143 1.72113 -2.0185 3.5558L5.40483 6.53811ZM6.13797 5.61198C6.45172 5.39684 6.80953 5.28903 7.16644 5.28958L7.17893 -2.71041C5.18875 -2.71351 3.25141 -2.10882 1.61376 -0.98586L6.13797 5.61198ZM7.18421 5.28957C7.41739 5.2889 7.65092 5.33552 7.87225 5.4295L10.9992 -1.93409C9.78564 -2.4494 8.48085 -2.7142 7.16116 -2.7104L7.18421 5.28957ZM7.87225 5.4295C8.09383 5.52359 8.30191 5.66471 8.48164 5.84994L14.2231 0.278979C13.3072 -0.664916 12.2124 -1.41888 10.9992 -1.93409L7.87225 5.4295ZM8.48785 5.85634L8.73783 6.11282L14.4669 0.529071L14.2169 0.272586L8.48785 5.85634ZM8.74564 6.12081L9.64307 7.03646L15.3565 1.43673L14.4591 0.521082L8.74564 6.12081ZM15.3643 7.02847L16.2492 6.12052L10.5202 0.536765L9.63527 1.44472L15.3643 7.02847ZM16.2492 6.12052L16.4992 5.86403L10.7702 0.28028L10.5202 0.536765L16.2492 6.12052ZM16.503 5.86015C16.6841 5.67383 16.8938 5.53192 17.117 5.43739L13.998 -1.92955C12.7821 -1.41477 11.6847 -0.660567 10.7664 0.284159L16.503 5.86015ZM17.117 5.43739C17.34 5.34297 17.5754 5.29627 17.8103 5.29725L17.8434 -2.70268C16.5215 -2.70816 15.2142 -2.44444 13.998 -1.92955L17.117 5.43739ZM21.6311 2.53347L21.6336 2.52577L14.0252 0.0534047L14.0227 0.0610992L21.6311 2.53347ZM17.8405 -3.98512C16.357 -3.99017 14.8897 -3.69439 13.5236 -3.11748L16.6361 4.25224C17.0126 4.09322 17.4123 4.01347 17.8132 4.01484L17.8405 -3.98512ZM13.5236 -3.11748C12.1579 -2.54067 10.9234 -1.6956 9.88835 -0.635981L15.6112 4.95412C15.9101 4.64812 16.2593 4.41136 16.6361 4.25224L13.5236 -3.11748ZM9.88525 -0.632805L9.63527 -0.37632L15.3643 5.20743L15.6143 4.95095L9.88525 -0.632805ZM15.3643 -0.37632L15.1143 -0.632805L9.38529 4.95095L9.63527 5.20743L15.3643 -0.37632ZM15.116 -0.631041C13.0302 -2.77376 10.178 -3.9981 7.18088 -4L7.17583 4C7.98398 4.00051 8.78029 4.32945 9.38357 4.94918L15.116 -0.631041ZM7.18088 -4C4.18373 -4.00189 1.33 -2.78114 -0.75847 -0.64098L4.96711 4.9463C5.57105 4.32741 6.36768 3.99949 7.17583 4L7.18088 -4ZM-0.75847 -0.64098C-2.84353 1.49569 -3.99821 4.37331 -4 7.35364L4 7.35845C4.00056 6.43449 4.35977 5.56868 4.96711 4.9463L-0.75847 -0.64098ZM-4 7.35364C-4.00179 10.334 -2.85057 13.213 -0.768157 15.3522L4.9643 9.77198C4.35763 9.14875 3.99945 8.28241 4 7.35845L-4 7.35364ZM-0.766439 15.354L-0.516458 15.6104L5.21257 10.0267L4.96259 9.77021L-0.766439 15.354ZM-0.516998 15.6099L5.94501 22.2426L11.6751 16.6599L5.21311 10.0273L-0.516998 15.6099ZM5.94555 22.2431L7.44543 23.7821L13.1745 18.1983L11.6746 16.6594L5.94555 22.2431ZM7.31605 23.6428L7.34105 23.671L13.3288 18.3657L13.3038 18.3375L7.31605 23.6428ZM7.465 23.8047L8.10495 24.4638L13.8448 18.8913L13.2049 18.2321L7.465 23.8047ZM8.11831 24.4775C9.26381 25.6462 10.8356 26.3214 12.496 26.3214V18.3214C13.0164 18.3214 13.4944 18.5337 13.8315 18.8776L8.11831 24.4775ZM12.496 26.3214C14.1565 26.3214 15.7282 25.6462 16.8737 24.4775L11.1606 18.8776C11.4976 18.5337 11.9757 18.3214 12.496 18.3214V26.3214ZM16.8758 24.4755L17.4707 23.8676L11.7535 18.2718L11.1585 18.8797L16.8758 24.4755ZM17.4766 23.8616L19.0465 22.2508L13.3175 16.6671L11.7476 18.2778L17.4766 23.8616ZM19.0481 22.2492L25.5026 15.619L19.7704 10.0386L13.3159 16.6687L19.0481 22.2492ZM25.501 15.6207L25.751 15.3642L20.022 9.78047L19.772 10.037L25.501 15.6207ZM25.7431 15.3723C27.3042 13.7796 28.3578 11.7592 28.7854 9.57302L20.9343 8.03714C20.803 8.70818 20.4828 9.31028 20.0299 9.77238L25.7431 15.3723ZM28.7854 9.57302C29.213 7.38726 28.9989 5.11943 28.1663 3.05319L20.7461 6.0434C20.9987 6.67026 21.0656 7.36565 20.9343 8.03714L28.7854 9.57302ZM28.1663 3.05319C27.3333 0.986112 25.9138 -0.797012 24.0723 -2.05822L19.5518 4.54218C20.0727 4.89891 20.4938 5.41737 20.7461 6.0434L28.1663 3.05319ZM24.0723 -2.05822C22.2295 -3.32033 20.0515 -3.99897 17.8155 -3.9954L17.8283 4.00459C18.4325 4.00363 19.0322 4.18634 19.5518 4.54218L24.0723 -2.05822ZM14.226 1.75665L14.231 1.76691L21.4227 -1.73719L21.4177 -1.74745L14.226 1.75665Z" fill="#FA8C28" mask="url(#path-1-inside-1)"/>
</svg>
