<svg width="21" height="23" viewBox="0 0 21 23" fill="none" xmlns="http://www.w3.org/2000/svg">
<path d="M9.00003 23C10.3797 23 11.4989 21.8809 11.4989 20.5H6.5012C6.5012 21.8809 7.62034 23 9.00003 23ZM17.4137 17.152C16.659 16.341 15.2469 15.1211 15.2469 11.125C15.2469 8.08984 13.1188 5.66016 10.2492 5.06406V4.25C10.2492 3.55977 9.68987 3 9.00003 3C8.31018 3 7.75081 3.55977 7.75081 4.25V5.06406C4.88128 5.66016 2.75315 8.08984 2.75315 11.125C2.75315 15.1211 1.34104 16.341 0.586355 17.152C0.35198 17.4039 0.248074 17.7051 0.250027 18C0.254324 18.6406 0.757058 19.25 1.50393 19.25H16.4961C17.243 19.25 17.7461 18.6406 17.75 18C17.752 17.7051 17.6481 17.4035 17.4137 17.152Z" fill="#C5C7CD"/>
<circle cx="15.25" cy="5.5" r="4.5" fill="#FA8C28" stroke="#F7F8FC" stroke-width="1.5"/>
</svg>
