<svg width="83" height="83" viewBox="0 0 83 83" fill="none" xmlns="http://www.w3.org/2000/svg">
<path d="M9.88867 41.5C9.88867 40.1571 8.79994 39.0684 7.45703 39.0684H2.43164C1.08873 39.0684 0 40.1571 0 41.5C0 42.8429 1.08873 43.9316 2.43164 43.9316H7.45703C8.79994 43.9316 9.88867 42.8429 9.88867 41.5ZM80.5684 39.0684H75.543C74.2001 39.0684 73.1113 40.1571 73.1113 41.5C73.1113 42.8429 74.2001 43.9316 75.543 43.9316H80.5684C81.9113 43.9316 83 42.8429 83 41.5C83 40.1571 81.9113 39.0684 80.5684 39.0684ZM41.5 0C40.1571 0 39.0684 1.08873 39.0684 2.43164V7.45703C39.0684 8.79994 40.1571 9.88867 41.5 9.88867C42.8429 9.88867 43.9316 8.79994 43.9316 7.45703V2.43164C43.9316 1.08873 42.8429 0 41.5 0ZM41.5 73.1113C40.1571 73.1113 39.0684 74.2001 39.0684 75.543V80.5684C39.0684 81.9113 40.1571 83 41.5 83C42.8429 83 43.9316 81.9113 43.9316 80.5684V75.543C43.9316 74.2001 42.8429 73.1113 41.5 73.1113ZM15.7086 63.8526L12.2697 67.2914C11.3201 68.2411 11.3201 69.7806 12.2697 70.7303C13.2194 71.6799 14.7591 71.6797 15.7086 70.7303L19.1474 67.2914C20.097 66.3418 20.097 64.8022 19.1474 63.8526C18.1979 62.9028 16.6582 62.9028 15.7086 63.8526ZM67.2914 19.1474L70.7303 15.7086C71.6799 14.7589 71.6799 13.2194 70.7303 12.2697C69.7808 11.3201 68.2411 11.3201 67.2914 12.2697L63.8526 15.7086C62.903 16.6582 62.903 18.1978 63.8526 19.1474C64.8021 20.0972 66.342 20.097 67.2914 19.1474ZM15.7086 12.2697C14.7591 11.3201 13.2194 11.3201 12.2697 12.2697C11.3201 13.2194 11.3201 14.7589 12.2697 15.7086L15.7086 19.1474C16.6582 20.097 18.1979 20.0969 19.1474 19.1474C20.097 18.1978 20.097 16.6582 19.1474 15.7086L15.7086 12.2697ZM67.2914 63.8526C66.342 62.903 64.8022 62.903 63.8526 63.8526C62.903 64.8022 62.903 66.3418 63.8526 67.2914L67.2914 70.7303C68.2411 71.6799 69.7808 71.6797 70.7303 70.7303C71.6799 69.7806 71.6799 68.2411 70.7303 67.2914L67.2914 63.8526ZM29.4029 70.7051C28.1626 70.1911 26.7398 70.7804 26.2259 72.0211L24.3647 76.5142C23.8508 77.7548 24.4399 79.1773 25.6807 79.6912C26.9254 80.2069 28.3456 79.6117 28.8577 78.3752L30.7189 73.8822C31.2328 72.6415 30.6437 71.219 29.4029 70.7051ZM57.3193 3.30881C56.0787 2.7946 54.6561 3.38387 54.1423 4.62482L52.2811 9.11784C51.7672 10.3585 52.3563 11.781 53.5971 12.2949C54.8395 12.8097 56.261 12.2175 56.7741 10.9789L58.6353 6.48583C59.1493 5.24521 58.5601 3.8227 57.3193 3.30881ZM4.62482 28.8577L9.11784 30.7189C9.42212 30.845 9.73726 30.9047 10.0474 30.9047C11.0016 30.9047 11.9069 30.3394 12.2949 29.4029C12.8087 28.1623 12.2196 26.7398 10.9789 26.2259L6.48583 24.3647C5.24505 23.8505 3.8227 24.4398 3.30881 25.6807C2.79493 26.9213 3.38403 28.3437 4.62482 28.8577ZM78.3752 54.1423L73.8822 52.2811C72.6412 51.7672 71.219 52.3561 70.7051 53.5971C70.1913 54.8377 70.7804 56.2602 72.0211 56.7741L76.5142 58.6353C77.7588 59.151 79.1791 58.5559 79.6912 57.3193C80.2051 56.0787 79.616 54.6563 78.3752 54.1423ZM56.7741 72.021C56.2602 70.7802 54.8379 70.1909 53.5971 70.705C52.3563 71.2189 51.7672 72.6414 52.2811 73.882L54.1423 78.375C54.655 79.6132 56.0762 80.206 57.3193 79.691C58.5601 79.1771 59.1492 77.7546 58.6353 76.514L56.7741 72.021ZM28.8577 4.62482C28.3439 3.38403 26.9215 2.79477 25.6807 3.30881C24.4399 3.8227 23.8508 5.24521 24.3647 6.48583L26.2259 10.9789C26.7386 12.217 28.1599 12.8099 29.4029 12.2949C30.6437 11.781 31.2328 10.3585 30.7189 9.11784L28.8577 4.62482ZM70.7051 29.4029C71.2179 30.6411 72.6391 31.2339 73.8822 30.7189L78.3752 28.8577C79.616 28.3439 80.2051 26.9213 79.6912 25.6807C79.1775 24.4399 77.7551 23.8507 76.5142 24.3647L72.0211 26.2259C70.7804 26.7398 70.1911 28.1623 70.7051 29.4029ZM12.2949 53.5971C11.7811 52.3563 10.3586 51.767 9.11784 52.2811L4.62482 54.1423C3.38403 54.6561 2.79493 56.0787 3.30881 57.3193C3.82157 58.5575 5.24278 59.1503 6.48583 58.6353L10.9789 56.7741C12.2196 56.2602 12.8089 54.8377 12.2949 53.5971Z" fill="#FA8C28"/>
<path d="M41.5 68.248C56.2725 68.248 68.248 56.2725 68.248 41.5C68.248 26.7275 56.2725 14.752 41.5 14.752C26.7275 14.752 14.752 26.7275 14.752 41.5C14.752 56.2725 26.7275 68.248 41.5 68.248Z" fill="#FA8C28"/>
</svg>
